<?xml version="1.0" standalone="no"?><!DOCTYPE svg PUBLIC "-//W3C//DTD SVG 1.1//EN" "http://www.w3.org/Graphics/SVG/1.1/DTD/svg11.dtd"><svg t="1602399887363" class="icon" viewBox="0 0 1024 1024" version="1.1" xmlns="http://www.w3.org/2000/svg" p-id="2050" width="128" height="128" xmlns:xlink="http://www.w3.org/1999/xlink"><defs><style type="text/css"></style></defs><path d="M512 884.5c-50.3 0-99.1-9.9-145-29.3-44.4-18.8-84.2-45.6-118.4-79.8-34.2-34.2-61.1-74-79.8-118.4-19.4-45.9-29.3-94.7-29.3-145s9.9-99.1 29.3-145c18.8-44.4 45.6-84.2 79.8-118.4 34.2-34.2 74-61.1 118.4-79.8 45.9-19.4 94.7-29.3 145-29.3s99.1 9.9 145 29.3c44.4 18.8 84.2 45.6 118.4 79.8 34.2 34.2 61.1 74 79.8 118.4 19.4 45.9 29.3 94.7 29.3 145s-9.9 99.1-29.3 145c-18.8 44.4-45.6 84.2-79.8 118.4-34.2 34.2-74 61.1-118.4 79.8-45.9 19.4-94.7 29.3-145 29.3z m0-705c-183.3 0-332.5 149.1-332.5 332.5S328.7 844.5 512 844.5 844.5 695.3 844.5 512 695.3 179.5 512 179.5z" p-id="2051" fill="#707070"></path><path d="M453 645.5c-23.7 0-46.2-8.8-63.7-25l-75-69.7c-8.1-7.5-8.6-20.2-1.1-28.3 7.5-8.1 20.2-8.6 28.3-1.1l75 69.7c21.7 20.1 55.8 18.9 75.9-2.8l188.9-203.5c7.5-8.1 20.2-8.6 28.3-1.1 8.1 7.5 8.6 20.2 1.1 28.3L521.8 615.6c-17 18.3-40.2 29-65.2 29.9H453z" p-id="2052" fill="#707070"></path></svg>